<mxfile host="app.diagrams.net" modified="2020-08-03T23:23:30.389Z" agent="5.0 (Windows NT 6.3; Win64; x64) AppleWebKit/537.36 (KHTML, like Gecko) Chrome/75.0.3770.142 Safari/537.36" etag="y1luZkdRKhidb9OWlGUC" version="13.5.9" type="github">
  <diagram id="6TKCBjAXRnELeVO__39N" name="Page-1">
    <mxGraphModel dx="1021" dy="529" grid="1" gridSize="10" guides="1" tooltips="1" connect="1" arrows="1" fold="1" page="1" pageScale="1" pageWidth="827" pageHeight="1169" math="0" shadow="0">
      <root>
        <mxCell id="0" />
        <mxCell id="1" parent="0" />
        <mxCell id="jOjSd6sIYPnyeARKxgvh-28" style="edgeStyle=orthogonalEdgeStyle;rounded=0;orthogonalLoop=1;jettySize=auto;html=1;exitX=0;exitY=0.5;exitDx=0;exitDy=0;entryX=0.5;entryY=0;entryDx=0;entryDy=0;" parent="1" source="jOjSd6sIYPnyeARKxgvh-2" target="jOjSd6sIYPnyeARKxgvh-24" edge="1">
          <mxGeometry relative="1" as="geometry" />
        </mxCell>
        <mxCell id="jOjSd6sIYPnyeARKxgvh-29" style="edgeStyle=orthogonalEdgeStyle;rounded=0;orthogonalLoop=1;jettySize=auto;html=1;exitX=0;exitY=1;exitDx=0;exitDy=0;entryX=0.5;entryY=0;entryDx=0;entryDy=0;" parent="1" source="jOjSd6sIYPnyeARKxgvh-2" target="jOjSd6sIYPnyeARKxgvh-25" edge="1">
          <mxGeometry relative="1" as="geometry" />
        </mxCell>
        <mxCell id="jOjSd6sIYPnyeARKxgvh-30" style="edgeStyle=orthogonalEdgeStyle;rounded=0;orthogonalLoop=1;jettySize=auto;html=1;exitX=1;exitY=1;exitDx=0;exitDy=0;entryX=0.5;entryY=0;entryDx=0;entryDy=0;" parent="1" source="jOjSd6sIYPnyeARKxgvh-2" target="jOjSd6sIYPnyeARKxgvh-26" edge="1">
          <mxGeometry relative="1" as="geometry" />
        </mxCell>
        <mxCell id="jOjSd6sIYPnyeARKxgvh-31" style="edgeStyle=orthogonalEdgeStyle;rounded=0;orthogonalLoop=1;jettySize=auto;html=1;exitX=1;exitY=0.5;exitDx=0;exitDy=0;" parent="1" source="jOjSd6sIYPnyeARKxgvh-2" target="jOjSd6sIYPnyeARKxgvh-27" edge="1">
          <mxGeometry relative="1" as="geometry" />
        </mxCell>
        <mxCell id="-piaCQ9Sztjg3amfLU7g-2" style="edgeStyle=orthogonalEdgeStyle;rounded=0;orthogonalLoop=1;jettySize=auto;html=1;exitX=1;exitY=0.5;exitDx=0;exitDy=0;entryX=0.5;entryY=0;entryDx=0;entryDy=0;" edge="1" parent="1" source="jOjSd6sIYPnyeARKxgvh-3" target="-piaCQ9Sztjg3amfLU7g-1">
          <mxGeometry relative="1" as="geometry" />
        </mxCell>
        <mxCell id="-piaCQ9Sztjg3amfLU7g-4" style="edgeStyle=orthogonalEdgeStyle;rounded=0;orthogonalLoop=1;jettySize=auto;html=1;exitX=0;exitY=0.25;exitDx=0;exitDy=0;entryX=0.5;entryY=0;entryDx=0;entryDy=0;" edge="1" parent="1" source="jOjSd6sIYPnyeARKxgvh-2" target="-piaCQ9Sztjg3amfLU7g-3">
          <mxGeometry relative="1" as="geometry" />
        </mxCell>
        <mxCell id="jOjSd6sIYPnyeARKxgvh-2" value="Серия" style="rounded=0;whiteSpace=wrap;html=1;strokeColor=#6c8ebf;fillColor=#3333FF;fontColor=#ffffff;opacity=80;" parent="1" vertex="1">
          <mxGeometry x="280" y="260" width="120" height="60" as="geometry" />
        </mxCell>
        <mxCell id="jOjSd6sIYPnyeARKxgvh-18" style="edgeStyle=orthogonalEdgeStyle;rounded=0;orthogonalLoop=1;jettySize=auto;html=1;exitX=0;exitY=1;exitDx=0;exitDy=0;entryX=0.5;entryY=0;entryDx=0;entryDy=0;" parent="1" source="jOjSd6sIYPnyeARKxgvh-3" target="jOjSd6sIYPnyeARKxgvh-17" edge="1">
          <mxGeometry relative="1" as="geometry" />
        </mxCell>
        <mxCell id="jOjSd6sIYPnyeARKxgvh-19" style="edgeStyle=orthogonalEdgeStyle;rounded=0;orthogonalLoop=1;jettySize=auto;html=1;exitX=0.25;exitY=1;exitDx=0;exitDy=0;entryX=0.5;entryY=0;entryDx=0;entryDy=0;" parent="1" source="jOjSd6sIYPnyeARKxgvh-3" target="jOjSd6sIYPnyeARKxgvh-6" edge="1">
          <mxGeometry relative="1" as="geometry" />
        </mxCell>
        <mxCell id="jOjSd6sIYPnyeARKxgvh-21" style="edgeStyle=orthogonalEdgeStyle;rounded=0;orthogonalLoop=1;jettySize=auto;html=1;exitX=0.75;exitY=1;exitDx=0;exitDy=0;entryX=0.5;entryY=0;entryDx=0;entryDy=0;" parent="1" source="jOjSd6sIYPnyeARKxgvh-3" target="jOjSd6sIYPnyeARKxgvh-7" edge="1">
          <mxGeometry relative="1" as="geometry" />
        </mxCell>
        <mxCell id="jOjSd6sIYPnyeARKxgvh-22" style="edgeStyle=orthogonalEdgeStyle;rounded=0;orthogonalLoop=1;jettySize=auto;html=1;exitX=1;exitY=1;exitDx=0;exitDy=0;" parent="1" source="jOjSd6sIYPnyeARKxgvh-3" target="jOjSd6sIYPnyeARKxgvh-15" edge="1">
          <mxGeometry relative="1" as="geometry" />
        </mxCell>
        <mxCell id="jOjSd6sIYPnyeARKxgvh-23" style="edgeStyle=orthogonalEdgeStyle;rounded=0;orthogonalLoop=1;jettySize=auto;html=1;exitX=0.5;exitY=1;exitDx=0;exitDy=0;entryX=0.5;entryY=0;entryDx=0;entryDy=0;" parent="1" source="jOjSd6sIYPnyeARKxgvh-3" target="jOjSd6sIYPnyeARKxgvh-13" edge="1">
          <mxGeometry relative="1" as="geometry" />
        </mxCell>
        <mxCell id="jOjSd6sIYPnyeARKxgvh-3" value="Список сериалов" style="rounded=0;whiteSpace=wrap;html=1;strokeColor=#6c8ebf;fillColor=#3333FF;fontColor=#ffffff;opacity=80;" parent="1" vertex="1">
          <mxGeometry x="300" width="114" height="60" as="geometry" />
        </mxCell>
        <mxCell id="jOjSd6sIYPnyeARKxgvh-6" value="Описание" style="rounded=1;whiteSpace=wrap;html=1;" parent="1" vertex="1">
          <mxGeometry x="150" y="120" width="120" height="60" as="geometry" />
        </mxCell>
        <mxCell id="jOjSd6sIYPnyeARKxgvh-7" value="Оценки" style="rounded=1;whiteSpace=wrap;html=1;" parent="1" vertex="1">
          <mxGeometry x="440" y="120" width="120" height="60" as="geometry" />
        </mxCell>
        <mxCell id="jOjSd6sIYPnyeARKxgvh-13" value="Ограничения по возрасту" style="rounded=1;whiteSpace=wrap;html=1;" parent="1" vertex="1">
          <mxGeometry x="297" y="100" width="120" height="60" as="geometry" />
        </mxCell>
        <mxCell id="jOjSd6sIYPnyeARKxgvh-15" value="Статус сериала" style="rounded=1;whiteSpace=wrap;html=1;" parent="1" vertex="1">
          <mxGeometry x="590" y="100" width="120" height="60" as="geometry" />
        </mxCell>
        <mxCell id="jOjSd6sIYPnyeARKxgvh-17" value="Сериал &lt;br&gt;(название)" style="rounded=1;whiteSpace=wrap;html=1;" parent="1" vertex="1">
          <mxGeometry x="10" y="100" width="120" height="60" as="geometry" />
        </mxCell>
        <mxCell id="jOjSd6sIYPnyeARKxgvh-24" value="Номер серии" style="rounded=1;whiteSpace=wrap;html=1;" parent="1" vertex="1">
          <mxGeometry x="140" y="360" width="120" height="60" as="geometry" />
        </mxCell>
        <mxCell id="jOjSd6sIYPnyeARKxgvh-25" value="Название серии" style="rounded=1;whiteSpace=wrap;html=1;" parent="1" vertex="1">
          <mxGeometry x="270" y="360" width="120" height="60" as="geometry" />
        </mxCell>
        <mxCell id="jOjSd6sIYPnyeARKxgvh-26" value="Описание серии" style="rounded=1;whiteSpace=wrap;html=1;" parent="1" vertex="1">
          <mxGeometry x="417" y="360" width="120" height="60" as="geometry" />
        </mxCell>
        <mxCell id="jOjSd6sIYPnyeARKxgvh-27" value="file_id&amp;nbsp;&lt;br&gt;серии" style="rounded=1;whiteSpace=wrap;html=1;" parent="1" vertex="1">
          <mxGeometry x="560" y="360" width="120" height="60" as="geometry" />
        </mxCell>
        <mxCell id="jOjSd6sIYPnyeARKxgvh-39" style="edgeStyle=orthogonalEdgeStyle;rounded=0;orthogonalLoop=1;jettySize=auto;html=1;exitX=0;exitY=0;exitDx=0;exitDy=0;entryX=0.5;entryY=0;entryDx=0;entryDy=0;" parent="1" source="jOjSd6sIYPnyeARKxgvh-32" target="jOjSd6sIYPnyeARKxgvh-38" edge="1">
          <mxGeometry relative="1" as="geometry">
            <Array as="points">
              <mxPoint x="330" y="510" />
              <mxPoint x="70" y="510" />
            </Array>
          </mxGeometry>
        </mxCell>
        <mxCell id="jOjSd6sIYPnyeARKxgvh-40" style="edgeStyle=orthogonalEdgeStyle;rounded=0;orthogonalLoop=1;jettySize=auto;html=1;exitX=0;exitY=0.5;exitDx=0;exitDy=0;entryX=0.5;entryY=0;entryDx=0;entryDy=0;" parent="1" source="jOjSd6sIYPnyeARKxgvh-32" target="jOjSd6sIYPnyeARKxgvh-34" edge="1">
          <mxGeometry relative="1" as="geometry">
            <Array as="points">
              <mxPoint x="330" y="540" />
              <mxPoint x="340" y="540" />
            </Array>
          </mxGeometry>
        </mxCell>
        <mxCell id="jOjSd6sIYPnyeARKxgvh-41" style="edgeStyle=orthogonalEdgeStyle;rounded=0;orthogonalLoop=1;jettySize=auto;html=1;exitX=0.5;exitY=1;exitDx=0;exitDy=0;entryX=0.5;entryY=0;entryDx=0;entryDy=0;" parent="1" source="jOjSd6sIYPnyeARKxgvh-32" target="jOjSd6sIYPnyeARKxgvh-35" edge="1">
          <mxGeometry relative="1" as="geometry" />
        </mxCell>
        <mxCell id="jOjSd6sIYPnyeARKxgvh-42" style="edgeStyle=orthogonalEdgeStyle;rounded=0;orthogonalLoop=1;jettySize=auto;html=1;exitX=1;exitY=0.5;exitDx=0;exitDy=0;entryX=0.5;entryY=0;entryDx=0;entryDy=0;" parent="1" source="jOjSd6sIYPnyeARKxgvh-32" target="jOjSd6sIYPnyeARKxgvh-36" edge="1">
          <mxGeometry relative="1" as="geometry">
            <Array as="points">
              <mxPoint x="450" y="540" />
              <mxPoint x="610" y="540" />
              <mxPoint x="610" y="610" />
            </Array>
          </mxGeometry>
        </mxCell>
        <mxCell id="jOjSd6sIYPnyeARKxgvh-43" style="edgeStyle=orthogonalEdgeStyle;rounded=0;orthogonalLoop=1;jettySize=auto;html=1;exitX=1;exitY=0;exitDx=0;exitDy=0;entryX=0.5;entryY=0;entryDx=0;entryDy=0;" parent="1" source="jOjSd6sIYPnyeARKxgvh-32" target="jOjSd6sIYPnyeARKxgvh-37" edge="1">
          <mxGeometry relative="1" as="geometry">
            <Array as="points">
              <mxPoint x="450" y="510" />
              <mxPoint x="780" y="510" />
              <mxPoint x="780" y="610" />
            </Array>
          </mxGeometry>
        </mxCell>
        <mxCell id="-piaCQ9Sztjg3amfLU7g-6" style="edgeStyle=orthogonalEdgeStyle;rounded=0;orthogonalLoop=1;jettySize=auto;html=1;exitX=0;exitY=0.75;exitDx=0;exitDy=0;entryX=0.5;entryY=0;entryDx=0;entryDy=0;" edge="1" parent="1" source="jOjSd6sIYPnyeARKxgvh-32" target="-piaCQ9Sztjg3amfLU7g-5">
          <mxGeometry relative="1" as="geometry" />
        </mxCell>
        <mxCell id="jOjSd6sIYPnyeARKxgvh-32" value="Юзер" style="rounded=0;whiteSpace=wrap;html=1;strokeColor=#6c8ebf;fillColor=#3333FF;fontColor=#ffffff;opacity=80;" parent="1" vertex="1">
          <mxGeometry x="330" y="490" width="120" height="60" as="geometry" />
        </mxCell>
        <mxCell id="jOjSd6sIYPnyeARKxgvh-34" value="Пол" style="rounded=1;whiteSpace=wrap;html=1;" parent="1" vertex="1">
          <mxGeometry x="280" y="610" width="120" height="60" as="geometry" />
        </mxCell>
        <mxCell id="jOjSd6sIYPnyeARKxgvh-35" value="Возраст" style="rounded=1;whiteSpace=wrap;html=1;" parent="1" vertex="1">
          <mxGeometry x="417" y="610" width="120" height="60" as="geometry" />
        </mxCell>
        <mxCell id="jOjSd6sIYPnyeARKxgvh-36" value="Страна" style="rounded=1;whiteSpace=wrap;html=1;" parent="1" vertex="1">
          <mxGeometry x="560" y="610" width="120" height="60" as="geometry" />
        </mxCell>
        <mxCell id="jOjSd6sIYPnyeARKxgvh-37" value="Город" style="rounded=1;whiteSpace=wrap;html=1;" parent="1" vertex="1">
          <mxGeometry x="730" y="610" width="120" height="60" as="geometry" />
        </mxCell>
        <mxCell id="jOjSd6sIYPnyeARKxgvh-38" value="Телеграм id" style="rounded=1;whiteSpace=wrap;html=1;" parent="1" vertex="1">
          <mxGeometry x="10" y="610" width="120" height="60" as="geometry" />
        </mxCell>
        <mxCell id="-piaCQ9Sztjg3amfLU7g-1" value="Дата добавления" style="rounded=1;whiteSpace=wrap;html=1;" vertex="1" parent="1">
          <mxGeometry x="730" y="100" width="120" height="60" as="geometry" />
        </mxCell>
        <mxCell id="-piaCQ9Sztjg3amfLU7g-3" value="Название сериала" style="rounded=1;whiteSpace=wrap;html=1;" vertex="1" parent="1">
          <mxGeometry y="360" width="120" height="60" as="geometry" />
        </mxCell>
        <mxCell id="-piaCQ9Sztjg3amfLU7g-5" value="was подписан" style="rounded=1;whiteSpace=wrap;html=1;" vertex="1" parent="1">
          <mxGeometry x="150" y="610" width="120" height="60" as="geometry" />
        </mxCell>
      </root>
    </mxGraphModel>
  </diagram>
</mxfile>
